<?xml version="1.0" encoding="iso-8859-1"?>
<!-- Generator: Adobe Illustrator 16.0.0, SVG Export Plug-In . SVG Version: 6.00 Build 0)  -->
<!DOCTYPE svg PUBLIC "-//W3C//DTD SVG 1.1//EN" "http://www.w3.org/Graphics/SVG/1.1/DTD/svg11.dtd">
<svg version="1.1" id="Capa_1" xmlns="http://www.w3.org/2000/svg" xmlns:xlink="http://www.w3.org/1999/xlink" x="0px" y="0px"
	 width="569.877px" height="569.877px" viewBox="0 0 569.877 569.877" style="enable-background:new 0 0 569.877 569.877;"
	 xml:space="preserve">
<g>
	<path d="M452.583,531.417V38.451C452.583,17.222,435.362,0,414.142,0H155.716c-21.238,0-38.422,17.222-38.422,38.451v492.976
		c0,21.238,17.184,38.45,38.422,38.45h258.426C435.362,569.867,452.583,552.655,452.583,531.417z M169.151,74.004
		c0-5.842,4.743-10.585,10.585-10.585h49.323c32.723,17.538,80.22,53.311,80.832,113.354c-4.16,4.542-7.688,8.922-10.518,12.813
		c-7.938,10.911-11.141,29.682-10.127,41.798l3.949,47.458l-124.064,31.901V74.004H169.151z M169.151,330.499l125.67-32.321
		l5.212,62.73l-130.882,33.659V330.499z M284.293,546.392c-13.369,0-24.203-10.815-24.203-24.184
		c0-13.35,10.834-24.184,24.203-24.184c13.331,0,24.184,10.834,24.184,24.184C308.478,535.576,297.624,546.392,284.293,546.392z
		 M179.737,464.106c-5.843,0-10.585-4.733-10.585-10.576v-39.226l132.488-34.062l6.971,83.873H179.737V464.106z M400.698,453.53
		c0,5.843-4.744,10.576-10.586,10.576h-62.328l-7.373-88.692l80.287-20.646V453.53z M400.698,335.013l-81.895,21.057l-5.211-62.721
		l87.105-22.395V335.013L400.698,335.013z M400.698,251.207l-88.713,22.807l-3.68-44.208c-0.795-9.543,2.256-23.084,6.549-28.965
		c12.375-17.05,39.092-44.265,85.854-50.318v100.684H400.698z M400.698,131.303c-31.623,3.567-55.502,15.549-72.818,28.965
		c-5.977-45.183-34.215-76.452-62.233-96.839h124.466c5.842,0,10.586,4.733,10.586,10.585V131.303z"/>
	<path d="M221.477,131.513c-15.443,3.509-25.13,18.876-21.621,34.329c0.975,4.265,2.85,8.1,5.384,11.322
		c3.261,4.16,10.155,9.371,13.99,12.986c3.949,3.739,8.893,8.396,12.852,12.135c3.834,3.624,8.492,2.562,10.385-2.372l6.331-16.447
		c1.893-4.935,5.871-12.594,7.028-17.748c0.908-4.016,0.947-8.281-0.029-12.565C252.307,137.681,236.93,128.013,221.477,131.513z
		 M227.827,176.342c-7.918,0-14.344-6.426-14.344-14.344c0-7.917,6.426-14.344,14.344-14.344c7.927,0,14.344,6.426,14.344,14.344
		C242.17,169.916,235.754,176.342,227.827,176.342z"/>
</g>
<g>
</g>
<g>
</g>
<g>
</g>
<g>
</g>
<g>
</g>
<g>
</g>
<g>
</g>
<g>
</g>
<g>
</g>
<g>
</g>
<g>
</g>
<g>
</g>
<g>
</g>
<g>
</g>
<g>
</g>
</svg>
