<svg height="512pt" viewBox="-50 0 512 512" width="512pt" xmlns="http://www.w3.org/2000/svg"><path d="m388.128906 512h-363.355468c-13.679688 0-24.773438-11.09375-24.773438-24.773438v-462.453124c0-13.679688 11.089844-24.773438 24.773438-24.773438h363.355468c13.683594 0 24.773438 11.09375 24.773438 24.773438v462.453124c0 13.679688-11.089844 24.773438-24.773438 24.773438zm0 0" fill="#6f6571"/><path d="m371.613281 478.96875h-330.324219c-4.558593 0-8.257812-3.699219-8.257812-8.257812v-429.421876c0-4.558593 3.699219-8.257812 8.257812-8.257812h330.324219c4.5625 0 8.257813 3.699219 8.257813 8.257812v429.421876c0 4.558593-3.699219 8.257812-8.257813 8.257812zm0 0" fill="#ff8086"/><path d="m371.613281 33.03125h-330.324219c-4.558593 0-8.257812 3.699219-8.257812 8.257812v57.808594h165.160156c4.5625 0 8.257813-3.699218 8.257813-8.257812v-16.515625c0-4.5625 3.699219-8.257813 8.261719-8.257813h49.546874c4.558594 0 8.257813 3.695313 8.257813 8.257813v16.515625c0 4.558594 3.695313 8.257812 8.257813 8.257812h99.097656v-57.808594c0-4.558593-3.699219-8.257812-8.257813-8.257812zm0 0" fill="#eceaec"/><g fill="#fff"><path d="m206.449219 231.226562c-22.765625 0-41.289063 18.523438-41.289063 41.289063v66.066406c0 22.765625 18.523438 41.289063 41.289063 41.289063 22.769531 0 41.292969-18.523438 41.292969-41.289063v-66.066406c0-22.765625-18.523438-41.289063-41.292969-41.289063zm24.777343 107.355469c0 13.660157-11.113281 24.773438-24.777343 24.773438-13.660157 0-24.773438-11.113281-24.773438-24.773438v-66.066406c0-13.660156 11.113281-24.773437 24.773438-24.773437 13.664062 0 24.777343 11.113281 24.777343 24.773437zm0 0"/><path d="m148.644531 330.324219h-8.257812v-90.839844c0-4.566406-3.695313-8.257813-8.257813-8.257813s-8.257812 3.695313-8.257812 8.257813v90.839844h-38.96875l22.203125-88.839844c1.113281-4.417969-1.582031-8.902344-6.007813-10.007813-4.4375-1.136718-8.910156 1.574219-10.007812 6.007813l-24.773438 99.097656c-.621094 2.46875-.066406 5.078125 1.5 7.078125 1.5625 2.011719 3.964844 3.179688 6.507813 3.179688h49.546875v24.773437c0 4.566407 3.695312 8.257813 8.257812 8.257813s8.257813-3.695313 8.257813-8.257813v-24.773437h8.257812c4.566407 0 8.257813-3.695313 8.257813-8.257813 0-4.566406-3.691406-8.257812-8.257813-8.257812zm0 0"/><path d="m346.839844 330.324219h-8.261719v-90.839844c0-4.566406-3.691406-8.257813-8.257813-8.257813-4.5625 0-8.257812 3.695313-8.257812 8.257813v90.839844h-38.964844l22.199219-88.839844c1.113281-4.417969-1.578125-8.902344-6.007813-10.007813-4.433593-1.136718-8.910156 1.574219-10.007812 6.007813l-24.773438 99.097656c-.621093 2.46875-.066406 5.078125 1.5 7.078125 1.566407 2.011719 3.96875 3.179688 6.507813 3.179688h49.546875v24.773437c0 4.566407 3.695312 8.257813 8.257812 8.257813 4.566407 0 8.257813-3.695313 8.257813-8.257813v-24.773437h8.261719c4.5625 0 8.257812-3.695313 8.257812-8.257813 0-4.566406-3.695312-8.257812-8.257812-8.257812zm0 0"/></g><path d="m16.515625 478.96875v-477.570312c-9.601563 3.414062-16.515625 12.605468-16.515625 23.375v462.453124c0 13.679688 11.089844 24.773438 24.773438 24.773438h363.355468c10.769532 0 19.957032-6.914062 23.371094-16.515625h-378.46875c-9.121094 0-16.515625-7.394531-16.515625-16.515625zm0 0" fill="#5d5360"/><path d="m198.191406 99.097656h-49.546875v-24.773437c0-4.5625 3.699219-8.257813 8.257813-8.257813h57.808594c-4.5625 0-8.261719 3.695313-8.261719 8.257813v16.515625c0 4.558594-3.695313 8.257812-8.257813 8.257812zm0 0" fill="#dad8db"/><path d="m264.257812 66.066406c4.558594 0 8.257813 3.695313 8.257813 8.257813v16.515625c0 4.558594 3.695313 8.257812 8.257813 8.257812h57.804687v-24.773437c0-4.5625-3.695313-8.257813-8.257813-8.257813zm0 0" fill="#dad8db"/><path d="m123.871094 66.066406h-41.292969c-4.558594 0-8.257813 3.695313-8.257813 8.257813v24.773437h57.808594v-24.773437c0-4.5625-3.699218-8.257813-8.257812-8.257813zm0 0" fill="#dad8db"/><path d="m346.839844 140.386719h-280.777344c-4.558594 0-8.257812-3.695313-8.257812-8.257813s3.699218-8.257812 8.257812-8.257812h280.777344c4.558594 0 8.257812 3.695312 8.257812 8.257812s-3.699218 8.257813-8.257812 8.257813zm0 0" fill="#e5646e"/></svg>